<svg width="181" height="45" viewBox="0 0 181 45" fill="none" xmlns="http://www.w3.org/2000/svg">
<path d="M169.814 5.46569C168.745 5.21548 167.651 5.07838 166.55 5.05688C165.632 5.05177 164.716 5.12979 163.814 5.2899C157.132 6.4918 151.958 12.0148 151.786 18.1183C151.581 25.4769 155.915 31.2003 162.965 32.8559C164.034 33.1056 165.129 33.2427 166.229 33.2648C167.149 33.2697 168.066 33.1917 168.97 33.0317C175.648 31.8298 180.822 26.3068 180.993 20.1992C181.195 12.8365 176.864 7.12137 169.814 5.46569ZM166.431 27.6559C165.541 27.6643 164.656 27.543 163.805 27.2961C161.776 26.6936 160.039 25.4188 158.907 23.7017C157.776 21.9846 157.325 19.9382 157.635 17.9314C157.945 15.9247 158.996 14.0897 160.598 12.7575C162.201 11.4253 164.25 10.6834 166.375 10.6657C167.264 10.6573 168.15 10.7786 169 11.0255C171.03 11.628 172.767 12.9028 173.898 14.6199C175.029 16.337 175.481 18.3835 175.171 20.3902C174.861 22.397 173.809 24.2319 172.207 25.5641C170.604 26.8964 168.556 27.6382 166.431 27.6559Z" fill="white"/>
<path d="M153.752 5.06939C152.664 5.1251 151.573 5.1251 150.484 5.06939C149.906 5.06939 149.336 5.09392 148.771 5.13071C148.448 5.22151 148.149 5.37612 147.893 5.58449C147.685 5.79543 147.505 6.03026 147.358 6.28356C145.036 10.5311 142.77 14.8113 140.479 19.0793C140.389 19.251 140.29 19.4227 140.188 19.5985C139.965 20.0073 139.759 20.4161 139.524 20.8454L139.485 20.7759L139.442 20.8454L138.791 19.5985C138.689 19.4227 138.59 19.251 138.496 19.0793C136.204 14.8113 133.939 10.5311 131.617 6.28356C131.476 6.02685 131.302 5.78791 131.099 5.57223C130.844 5.36435 130.546 5.20977 130.225 5.11845C129.66 5.08166 129.09 5.06531 128.512 5.05713C127.423 5.11286 126.332 5.11286 125.244 5.05713H124.43L139.502 33.265C144.616 23.6988 149.516 14.5252 154.57 5.05713L153.752 5.06939Z" fill="white"/>
<path d="M53.8778 5.06086C46.2409 5.25709 40.1117 11.6386 40.0989 19.4428C40.0989 27.8643 40.0989 36.2871 40.0989 44.7113H46.2238V43.0229C46.2238 39.8301 46.1338 21.9161 46.1553 19.1157C46.1938 14.4921 49.7445 10.8292 54.3575 10.6166C56.6453 10.5236 58.8841 11.2669 60.6175 12.695C62.3509 14.1231 63.4484 16.1285 63.6862 18.3022C64.1702 22.8727 60.748 27.2388 55.9765 27.7048C54.7772 27.8152 53.5737 27.852 52.3487 27.852V33.326C53.3724 33.326 54.3875 33.326 55.4026 33.326C63.3307 33.281 70.1152 26.3762 69.7255 18.7764C69.2971 10.5594 62.6882 4.84011 53.8778 5.06086Z" fill="white"/>
<path d="M94.1309 19.9253C95.3067 18.3556 95.9224 16.4666 95.887 14.5372C95.9028 13.2891 95.6515 12.0511 95.1485 10.899C94.6455 9.74684 93.9013 8.70485 92.9616 7.83684C92.0508 6.9425 90.9585 6.23475 89.7515 5.75679C88.5445 5.27883 87.2481 5.0407 85.9415 5.05693H66.1533L69.4942 10.1098H85.8815C86.484 10.1025 87.0815 10.2143 87.6365 10.438C88.1916 10.6617 88.6921 10.9926 89.1067 11.4098C89.5541 11.8003 89.9095 12.277 90.1495 12.8084C90.3895 13.3398 90.5085 13.9137 90.4988 14.4923C90.5114 15.0827 90.394 15.669 90.1542 16.2133C89.9144 16.7577 89.5576 17.2479 89.1067 17.6524C88.6909 18.0701 88.1888 18.4009 87.6322 18.624C87.0756 18.8471 86.4766 18.9575 85.873 18.9483L81.1144 18.9115L89.8135 33.2648H96.114L90.1004 23.204C91.7361 22.4885 93.1315 21.3534 94.1309 19.9253Z" fill="white"/>
<path d="M33.1559 8.94882C30.8384 6.65464 27.7038 5.27324 24.3711 5.07739C23.8971 5.05558 23.426 5.05558 22.9577 5.07739C22.4894 5.09919 22.0183 5.09919 21.5443 5.07739C18.2131 5.27424 15.0803 6.65556 12.7638 8.94882C10.986 10.5735 9.7027 12.6277 9.0503 14.8929C8.59386 16.2891 8.36137 17.7432 8.36072 19.2059V23.0446C8.36072 23.5188 8.2879 33.2648 8.2879 33.2648H14.1772V32.0793C14.1772 31.9444 14.1772 31.8013 14.1772 31.6705C14.1772 30.2192 14.1772 28.7679 14.1772 27.3207C14.2458 24.6921 14.2372 22.0675 14.2543 19.443C14.28 14.8439 17.4539 11.2668 21.7927 10.7067H21.9512C22.1439 10.6822 22.3409 10.674 22.538 10.6658C22.735 10.6576 22.8078 10.6658 22.9663 10.6658C23.1248 10.6658 23.2404 10.6658 23.3732 10.6658C23.5702 10.6658 23.7715 10.6658 23.9642 10.7067H24.1184C28.4487 11.2504 31.6225 14.8357 31.6525 19.4348C31.6525 22.0594 31.6525 24.688 31.7253 27.3126C31.7253 28.7638 31.7253 30.211 31.7253 31.6623C31.7253 31.8013 31.7253 31.9444 31.7253 32.0711V33.2567H37.4519C37.4519 33.0686 37.4519 32.8806 37.4519 32.6925C37.5126 32.267 37.5455 31.8383 37.5504 31.4088C37.5504 29.095 37.5504 26.777 37.5504 24.4591C37.5504 23.9808 37.5504 23.5065 37.5504 23.0323C37.5504 21.7527 37.5504 20.4732 37.5504 19.1936C37.5412 17.7337 37.3059 16.2831 36.8523 14.8888C36.202 12.6277 34.9251 10.5756 33.1559 8.94882Z" fill="white"/>
<path fill-rule="evenodd" clip-rule="evenodd" d="M112.84 7.6773C112.406 7.583 111.967 7.51338 111.525 7.46881C109.846 7.29297 108.146 7.45458 106.536 7.94323C104.927 8.43187 103.442 9.23674 102.177 10.3061C100.913 11.3754 99.8971 12.6855 99.1951 14.152C98.4931 15.6186 98.1205 17.2092 98.1013 18.8215V18.9482C98.1013 19.0381 98.1013 19.1281 98.1013 19.2139C98.171 22.8988 99.7552 26.4099 102.512 28.9901C105.269 31.5704 108.978 33.0131 112.84 33.0071C111.139 33.01 109.457 32.6703 107.903 32.0101C106.349 31.35 104.959 30.3843 103.823 29.1762C102.687 27.9681 101.831 26.5447 101.311 24.9992C100.79 23.4537 100.618 21.8209 100.804 20.2073C100.851 19.7869 100.923 19.3692 101.018 18.9564C101.455 17.0821 102.373 15.3411 103.691 13.8907C105.009 12.4403 106.685 11.3262 108.568 10.649C110.45 9.97183 112.479 9.75293 114.473 10.0121C116.466 10.2712 118.36 11.0003 119.984 12.1333C118.249 9.86824 115.71 8.28407 112.84 7.6773Z" fill="#F15A29"/>
<path fill-rule="evenodd" clip-rule="evenodd" d="M127.561 18.9563C127.563 20.5795 127.206 22.1847 126.513 23.6672C125.821 25.1498 124.809 26.4762 123.543 27.5599C122.277 28.6437 120.785 29.4603 119.166 29.9566C117.547 30.4528 115.836 30.6175 114.146 30.4398C113.714 30.3961 113.285 30.3279 112.861 30.2354C110.897 29.8189 109.073 28.942 107.554 27.684C106.034 26.4259 104.867 24.8263 104.157 23.0297C103.448 21.2331 103.219 19.2961 103.49 17.3936C103.762 15.4912 104.525 13.6833 105.713 12.1333C103.34 13.792 101.679 16.2167 101.04 18.9563C100.667 20.5598 100.657 22.2208 101.011 23.8282C101.365 25.4356 102.074 26.9524 103.091 28.2772C104.212 29.7419 105.679 30.9336 107.372 31.7555C109.066 32.5774 110.939 33.0062 112.84 33.0071H113.148C116.998 32.9301 120.663 31.4164 123.357 28.7906C126.052 26.1647 127.561 22.6358 127.561 18.9604V18.9563Z" fill="#F7941D"/>
<path fill-rule="evenodd" clip-rule="evenodd" d="M127.561 18.7438V18.9564C127.563 20.5795 127.206 22.1848 126.513 23.6673C125.821 25.1498 124.809 26.4762 123.543 27.56C122.277 28.6437 120.785 29.4604 119.166 29.9566C117.547 30.4528 115.836 30.6175 114.146 30.4398C113.714 30.3961 113.285 30.3279 112.861 30.2354C109.981 29.631 107.431 28.0435 105.691 25.7712C107.232 26.8567 109.022 27.5775 110.912 27.8744C112.802 28.1714 114.739 28.0359 116.563 27.4791C118.388 26.9224 120.048 25.9603 121.407 24.6719C122.766 23.3835 123.786 21.8057 124.381 20.0681C124.977 18.3305 125.132 16.4827 124.834 14.6767C124.536 12.8707 123.793 11.158 122.666 9.67943C121.54 8.20086 120.061 6.99862 118.353 6.17156C116.645 5.34449 114.755 4.91621 112.84 4.92193C116.692 4.92224 120.39 6.36371 123.142 8.93706C125.893 11.5104 127.478 15.0106 127.557 18.6866C127.559 18.7124 127.559 18.7384 127.557 18.7642L127.561 18.7438Z" fill="#FBB040"/>
<path fill-rule="evenodd" clip-rule="evenodd" d="M110.994 5.03658C111.501 4.96188 112.013 4.91818 112.527 4.90576C112.014 4.91891 111.501 4.9626 110.994 5.03658ZM124.657 18.9566C125.045 17.2694 125.032 15.5208 124.618 13.8391C124.205 12.1575 123.402 10.5858 122.268 9.23939C121.134 7.89302 119.699 6.80632 118.067 6.05919C116.436 5.31206 114.649 4.92351 112.84 4.92211H112.544C108.691 4.99167 105.021 6.50043 102.32 9.12444C99.6198 11.7484 98.1051 15.2785 98.1013 18.9566C98.1037 17.3348 98.4633 15.7317 99.1567 14.2511C99.8501 12.7706 100.862 11.4457 102.126 10.3625C103.391 9.27928 104.88 8.46192 106.497 7.96344C108.114 7.46497 109.822 7.29651 111.512 7.469C111.954 7.51358 112.393 7.5832 112.827 7.67749C114.79 8.09351 116.613 8.9696 118.133 10.2267C119.652 11.4837 120.82 13.0822 121.53 14.8777C122.24 16.6733 122.471 18.6094 122.201 20.5113C121.931 22.4132 121.169 24.221 119.984 25.7714C122.356 24.116 124.017 21.694 124.657 18.9566Z" fill="#EF4136"/>
<path d="M3.12243 7.27683C2.58767 7.27674 2.05986 7.16123 1.57848 6.93893C1.09711 6.71664 0.67463 6.39332 0.342666 5.99316V24.8516C0.3327 26.1319 0.610457 27.3995 1.15721 28.5687C1.70397 29.7379 2.50701 30.7817 3.5122 31.6296C4.23087 32.2754 5.0377 32.8254 5.91077 33.2649V5.99316C5.57791 6.3944 5.15405 6.71837 4.67109 6.94071C4.18813 7.16305 3.65864 7.27797 3.12243 7.27683Z" fill="white"/>
<path fill-rule="evenodd" clip-rule="evenodd" d="M3.1267 0.600726C3.03247 0.600726 2.94252 0.568021 2.84829 0.559845C2.75561 0.553619 2.66257 0.553619 2.56989 0.559845C1.89567 0.559755 1.24841 0.812562 0.76768 1.26376C0.286945 1.71495 0.011237 2.3284 0 2.97182V3.05359C0.0157051 3.83078 0.350239 4.57107 0.931702 5.11535C1.51317 5.65963 2.29514 5.96446 3.10956 5.96431C2.42799 5.96431 1.77433 5.70589 1.29238 5.24589C0.810432 4.78589 0.539676 4.16199 0.539676 3.51145C0.533154 3.42299 0.533154 3.33419 0.539676 3.24573C0.539676 3.15579 0.565375 3.06994 0.582508 2.98409C0.677273 2.58993 0.872675 2.22424 1.15132 1.91959C1.42996 1.61494 1.7832 1.38077 2.17959 1.23793C2.57598 1.09509 3.00323 1.04802 3.42329 1.10089C3.84336 1.15376 4.24321 1.30495 4.58725 1.54099C4.21998 1.06425 3.68451 0.730307 3.07958 0.600726H3.1267Z" fill="#F15A29"/>
<path fill-rule="evenodd" clip-rule="evenodd" d="M6.23201 2.98411C6.23201 3.63465 5.96126 4.25855 5.47931 4.71855C4.99736 5.17855 4.34369 5.43697 3.66211 5.43697C3.56943 5.4432 3.47639 5.4432 3.38371 5.43697C3.29142 5.42966 3.19981 5.416 3.10958 5.39609C2.69244 5.30586 2.30549 5.11768 1.98382 4.84862C1.66214 4.57955 1.41591 4.23811 1.26745 3.85525C1.119 3.47239 1.07301 3.06022 1.13366 2.6561C1.1943 2.25198 1.35967 1.86871 1.61476 1.54102C1.11441 1.89257 0.764446 2.40524 0.629632 2.98411C0.629632 3.06996 0.595367 3.15581 0.586801 3.24575C0.580279 3.33422 0.580279 3.42301 0.586801 3.51148C0.586801 4.16202 0.857557 4.78591 1.33951 5.24591C1.82146 5.70591 2.47512 5.96434 3.1567 5.96434H3.22095C4.03298 5.94725 4.80578 5.62759 5.37408 5.07371C5.94238 4.51983 6.26107 3.77571 6.26199 3.00047L6.23201 2.98411Z" fill="#F7941D"/>
<path fill-rule="evenodd" clip-rule="evenodd" d="M6.23203 2.93984V2.98481C6.23203 3.63535 5.96127 4.25924 5.47932 4.71924C4.99737 5.17924 4.34371 5.43767 3.66213 5.43767C3.56945 5.44389 3.47642 5.44389 3.38373 5.43767C3.29144 5.43036 3.19983 5.4167 3.10961 5.39679C2.50311 5.26811 1.96599 4.93408 1.59766 4.45652C1.94141 4.69257 2.34095 4.84387 2.76075 4.89699C3.18055 4.9501 3.60759 4.90338 4.00391 4.76097C4.40023 4.61856 4.75353 4.38489 5.03241 4.08072C5.31128 3.77656 5.50708 3.41133 5.6024 3.01751C5.62294 2.92996 5.63725 2.84118 5.64523 2.75179C5.65176 2.66332 5.65176 2.57453 5.64523 2.48606C5.64523 1.83552 5.37448 1.21163 4.89253 0.751629C4.41058 0.291629 3.75692 0.0332031 3.07534 0.0332031C3.8883 0.0341063 4.66856 0.338843 5.24898 0.882136C5.8294 1.42543 6.16383 2.16407 6.18063 2.93984H6.23203Z" fill="#FBB040"/>
<path fill-rule="evenodd" clip-rule="evenodd" d="M2.73821 0.0449691C2.84458 0.0291743 2.95186 0.0196175 3.05945 0.0163524C2.95187 0.0198061 2.8446 0.0293619 2.73821 0.0449691ZM5.62076 2.98431C5.6413 2.89676 5.65561 2.80798 5.6636 2.71859C5.67012 2.63012 5.67012 2.54133 5.6636 2.45286C5.6636 1.80232 5.39284 1.17843 4.9109 0.718426C4.42895 0.258426 3.77529 0 3.09371 0H3.06373C2.24724 0.0160922 1.47015 0.338119 0.900342 0.896514C0.330534 1.45491 0.013749 2.20484 0.0184226 2.98431C0.0184226 2.33377 0.289177 1.70988 0.771123 1.24988C1.25307 0.789878 1.90673 0.531453 2.5883 0.531453C2.68099 0.525228 2.77402 0.525228 2.86671 0.531453C2.96094 0.531453 3.05088 0.555982 3.14511 0.572334C3.55771 0.663312 3.94037 0.850199 4.25904 1.11637C4.57772 1.38255 4.82255 1.71976 4.97175 2.09803C5.12095 2.4763 5.1699 2.8839 5.11425 3.28458C5.0586 3.68526 4.90008 4.06661 4.65278 4.39471C5.15226 4.04416 5.50213 3.53308 5.6379 2.9557L5.62076 2.98431Z" fill="#EF4136"/>
</svg>
