<svg width="25" height="23" viewBox="0 0 25 23" fill="none" xmlns="http://www.w3.org/2000/svg">
<path d="M10.3052 19.6707C12.5916 19.6703 14.8122 18.9398 16.6133 17.5955L22.276 23L24.0974 21.2616L18.4347 15.8571C19.8439 14.1379 20.6098 12.0181 20.6104 9.83536C20.6104 4.41239 15.9872 0 10.3052 0C4.62317 0 0 4.41239 0 9.83536C0 15.2583 4.62317 19.6707 10.3052 19.6707ZM10.3052 2.45884C14.5677 2.45884 18.0341 5.76721 18.0341 9.83536C18.0341 13.9035 14.5677 17.2119 10.3052 17.2119C6.04271 17.2119 2.5763 13.9035 2.5763 9.83536C2.5763 5.76721 6.04271 2.45884 10.3052 2.45884Z" fill="#C4C4C4"/>
</svg>
